<?xml version="1.0" encoding="UTF-8"?>
<svg version="1.1" xmlns="http://www.w3.org/2000/svg" width="675" height="519">
<path d="M0 0 C222.75 0 445.5 0 675 0 C675 171.27 675 342.54 675 519 C452.25 519 229.5 519 0 519 C0 347.73 0 176.46 0 0 Z " fill="#FEFEFE" transform="translate(0,0)"/>
<path d="M0 0 C222.75 0 445.5 0 675 0 C675 171.27 675 342.54 675 519 C452.25 519 229.5 519 0 519 C0 347.73 0 176.46 0 0 Z M54.4674778 34.59436893 C52.47150794 37.86635512 52.49860395 40.16483776 52.49663544 43.99346161 C52.49082167 44.70093043 52.48500791 45.40839924 52.47901797 46.13730651 C52.46435982 48.52022485 52.47832941 50.90212247 52.49206543 53.28503418 C52.48745879 55.00568276 52.48110747 56.72632741 52.47315645 58.44696379 C52.45640736 63.18476671 52.46473474 67.92224871 52.47710133 72.66005301 C52.48612674 77.76578721 52.47219459 82.87146501 52.46118164 87.97718811 C52.44336495 97.9830757 52.44725041 107.98884349 52.4588322 117.99473584 C52.46785388 126.1243845 52.46909602 134.25399951 52.46473694 142.38365173 C52.46412401 143.53928052 52.46351107 144.6949093 52.46287957 145.88555714 C52.46160071 148.23295709 52.46030386 150.58035704 52.4589892 152.92775697 C52.44757418 174.95608639 52.46071158 196.98434931 52.48219067 219.01266783 C52.50006247 237.92726109 52.49695862 256.84175617 52.47851562 275.75634766 C52.4571252 297.70410991 52.4486729 319.65181383 52.46096468 341.59958506 C52.46223892 343.93850612 52.4634964 346.27742719 52.46473694 348.61634827 C52.46535404 349.76723945 52.46597114 350.91813063 52.46660694 352.1038973 C52.47006533 360.22682607 52.46422099 368.34971794 52.45481873 376.47264099 C52.44361766 386.3674246 52.44659887 396.26208122 52.4679417 406.15685022 C52.47847763 411.20845937 52.48253076 416.25985657 52.46934509 421.31146431 C52.45746787 425.9315521 52.46390615 430.55123052 52.4852553 435.17128092 C52.48974127 436.84685661 52.48741069 438.52246654 52.47775215 440.1980204 C52.46566588 442.46802478 52.47798185 444.73660936 52.49663544 447.00653839 C52.49728485 448.26959824 52.49793426 449.53265809 52.49860334 450.83399248 C52.79524387 454.00778622 52.79524387 454.00778622 54.4674778 456.40563107 C58.2572072 458.79148452 61.62756484 458.55090735 66.02371979 458.50336456 C67.41415588 458.51208521 67.41415588 458.51208521 68.8326816 458.52098203 C71.96215958 458.53566712 75.09086367 458.52165696 78.22033691 458.50793457 C80.47720827 458.51254011 82.73407662 458.51889068 84.99093866 458.52684355 C91.21092068 458.54360756 97.43065856 458.53525837 103.65064168 458.52289867 C109.66388235 458.51480488 115.67707098 458.52542364 121.6903014 458.53548814 C134.75218141 458.55657552 147.81398327 458.55471586 160.87587075 458.54317249 C172.30635976 458.53312014 183.7368201 458.53047883 195.16731262 458.53526306 C196.30352697 458.53572137 196.30352697 458.53572137 197.46269514 458.53618894 C200.53734511 458.53743424 203.61199507 458.53870784 206.68664501 458.540028 C235.54393107 458.55227087 264.40116729 458.54115927 293.25844566 458.51964041 C318.9104423 458.50065722 344.56235952 458.50235569 370.21435547 458.52148438 C399.01801634 458.54289132 427.82163316 458.5514027 456.62530088 458.53903532 C459.69442971 458.5377524 462.76355854 458.53650104 465.83268738 458.53526306 C466.588415 458.53494675 467.34414262 458.53463044 468.12277107 458.53430455 C479.54758312 458.52974986 490.97236337 458.53508466 502.39717102 458.54518127 C515.38445566 458.55660132 528.37164976 458.55379542 541.35892308 458.5320583 C547.99020798 458.52132624 554.62136699 458.5174779 561.25266075 458.53065491 C567.31604306 458.54252155 573.37911317 458.53611112 579.44246691 458.5147447 C581.64293917 458.51025425 583.84343748 458.5125991 586.04389316 458.52224785 C589.02173716 458.53430977 591.9984942 458.52204087 594.97628021 458.50336456 C596.27516848 458.51741156 596.27516848 458.51741156 597.60029691 458.53174233 C601.26072094 458.48546235 603.38954144 458.38431891 606.5325222 456.40563107 C608.52849206 453.13364488 608.50139605 450.83516224 608.50336456 447.00653839 C608.51208521 445.94533516 608.51208521 445.94533516 608.52098203 444.86269349 C608.53564018 442.47977515 608.52167059 440.09787753 608.50793457 437.71496582 C608.51254121 435.99431724 608.51889253 434.27367259 608.52684355 432.55303621 C608.54359264 427.81523329 608.53526526 423.07775129 608.52289867 418.33994699 C608.51387326 413.23421279 608.52780541 408.12853499 608.53881836 403.02281189 C608.55663505 393.0169243 608.55274959 383.01115651 608.5411678 373.00526416 C608.53214612 364.8756155 608.53090398 356.74600049 608.53526306 348.61634827 C608.53618246 346.88290509 608.53618246 346.88290509 608.53712043 345.11444286 C608.53839929 342.76704291 608.53969614 340.41964296 608.5410108 338.07224303 C608.55242582 316.04391361 608.53928842 294.01565069 608.51780933 271.98733217 C608.49993753 253.07273891 608.50304138 234.15824383 608.52148438 215.24365234 C608.5428748 193.29589009 608.5513271 171.34818617 608.53903532 149.40041494 C608.53776108 147.06149388 608.5365036 144.72257281 608.53526306 142.38365173 C608.53464596 141.23276055 608.53402886 140.08186937 608.53339306 138.8961027 C608.52993467 130.77317393 608.53577901 122.65028206 608.54518127 114.52735901 C608.55638234 104.6325754 608.55340113 94.73791878 608.5320583 84.84314978 C608.52152237 79.79154063 608.51746924 74.74014343 608.53065491 69.68853569 C608.54253213 65.0684479 608.53609385 60.44876948 608.5147447 55.82871908 C608.51025873 54.15314339 608.51258931 52.47753346 608.52224785 50.8019796 C608.53433412 48.53197522 608.52201815 46.26339064 608.50336456 43.99346161 C608.50271515 42.73040176 608.50206574 41.46734191 608.50139666 40.16600752 C608.20475613 36.99221378 608.20475613 36.99221378 606.5325222 34.59436893 C602.7427928 32.20851548 599.37243516 32.44909265 594.97628021 32.49663544 C593.58584412 32.48791479 593.58584412 32.48791479 592.1673184 32.47901797 C589.03784042 32.46433288 585.90913633 32.47834304 582.77966309 32.49206543 C580.52279173 32.48745989 578.26592338 32.48110932 576.00906134 32.47315645 C569.78907932 32.45639244 563.56934144 32.46474163 557.34935832 32.47710133 C551.33611765 32.48519512 545.32292902 32.47457636 539.3096986 32.46451186 C526.24781859 32.44342448 513.18601673 32.44528414 500.12412925 32.45682751 C488.69364024 32.46687986 477.2631799 32.46952117 465.83268738 32.46473694 C465.07521115 32.4644314 464.31773492 32.46412586 463.53730486 32.46381106 C460.46265489 32.46256576 457.38800493 32.46129216 454.31335499 32.459972 C425.45606893 32.44772913 396.59883271 32.45884073 367.74155434 32.48035959 C342.0895577 32.49934278 316.43764048 32.49764431 290.78564453 32.47851562 C261.98198366 32.45710868 233.17836684 32.4485973 204.37469912 32.46096468 C201.30557029 32.4622476 198.23644146 32.46349896 195.16731262 32.46473694 C194.03372119 32.4652114 194.03372119 32.4652114 192.87722893 32.46569545 C181.45241688 32.47025014 170.02763663 32.46491534 158.60282898 32.45481873 C145.61554434 32.44339868 132.62835024 32.44620458 119.64107692 32.4679417 C113.00979202 32.47867376 106.37863301 32.4825221 99.74733925 32.46934509 C93.68395694 32.45747845 87.62088683 32.46388888 81.55753309 32.4852553 C79.35706083 32.48974575 77.15656252 32.4874009 74.95610684 32.47775215 C71.97826284 32.46569023 69.0015058 32.47795913 66.02371979 32.49663544 C65.15779428 32.48727077 64.29186876 32.47790611 63.39970309 32.46825767 C59.73927906 32.51453765 57.61045856 32.61568109 54.4674778 34.59436893 Z " fill="#FEFEFE" transform="translate(0,0)"/>
<path d="M0 0 C0.9269574 -0.00581376 1.85391479 -0.01162753 2.80896181 -0.01761746 C5.93843979 -0.03230256 9.06714388 -0.01829239 12.19661713 -0.00457001 C14.45348848 -0.00917555 16.71035684 -0.01552611 18.96721888 -0.02347898 C25.18720089 -0.040243 31.40693877 -0.03189381 37.62692189 -0.01953411 C43.64016256 -0.01144032 49.65335119 -0.02205908 55.66658162 -0.03212357 C68.72846162 -0.05321096 81.79026348 -0.0513513 94.85215096 -0.03980792 C106.28263998 -0.02975558 117.71310031 -0.02711427 129.14359283 -0.0318985 C129.90106907 -0.03220404 130.6585453 -0.03250958 131.43897535 -0.03282438 C134.51362532 -0.03406968 137.58827528 -0.03534328 140.66292522 -0.03666343 C169.52021128 -0.04890631 198.3774475 -0.0377947 227.23472587 -0.01627585 C252.88672251 0.00270735 278.53863973 0.00100887 304.19063568 -0.01811981 C332.99429656 -0.03952676 361.79791337 -0.04803814 390.6015811 -0.03567076 C393.67070992 -0.03438784 396.73983875 -0.03313648 399.80896759 -0.0318985 C400.56469521 -0.03158219 401.32042283 -0.03126588 402.09905129 -0.03093999 C413.52386333 -0.0263853 424.94864359 -0.0317201 436.37345123 -0.04181671 C449.36073587 -0.05323675 462.34792997 -0.05043086 475.33520329 -0.02869374 C481.9664882 -0.01796168 488.5976472 -0.01411333 495.22894096 -0.02729034 C501.29232327 -0.03915699 507.35539339 -0.03274656 513.41874713 -0.01138014 C515.61921938 -0.00688969 517.81971769 -0.00923454 520.02017337 -0.01888329 C522.99801738 -0.0309452 525.97477441 -0.01867631 528.95256042 0 C529.81848594 -0.00936466 530.68441145 -0.01872933 531.57657713 -0.02837777 C535.23700115 0.01790221 537.36582165 0.11904566 540.50880241 2.0977335 C542.50477227 5.36971969 542.47767627 7.66820232 542.47964478 11.49682617 C542.48545854 12.20429499 542.4912723 12.91176381 542.49726224 13.64067107 C542.51192039 16.02358941 542.4979508 18.40548704 542.48421478 20.78839874 C542.48882142 22.50904732 542.49517274 24.22969197 542.50312376 25.95032835 C542.51987285 30.68813127 542.51154547 35.42561327 542.49917889 40.16341758 C542.49015347 45.26915177 542.50408562 50.37482957 542.51509857 55.48055267 C542.53291526 65.48644026 542.5290298 75.49220805 542.51744801 85.4981004 C542.50842633 93.62774906 542.5071842 101.75736407 542.51154327 109.8870163 C542.51215621 111.04264508 542.51276914 112.19827387 542.51340064 113.38892171 C542.5146795 115.73632166 542.51597636 118.0837216 542.51729101 120.43112153 C542.52870604 142.45945096 542.51556864 164.48771388 542.49408954 186.5160324 C542.47621774 205.43062566 542.47932159 224.34512073 542.49776459 243.25971222 C542.51915501 265.20747448 542.52760731 287.15517839 542.51531553 309.10294962 C542.51404129 311.44187068 542.51278381 313.78079175 542.51154327 316.11971283 C542.51092617 317.27060401 542.51030907 318.42149519 542.50967327 319.60726187 C542.50621488 327.73019064 542.51205923 335.8530825 542.52146149 343.97600555 C542.53266255 353.87078916 542.52968134 363.76544579 542.50833851 373.66021478 C542.49780258 378.71182393 542.49374945 383.76322113 542.50693512 388.81482887 C542.51881234 393.43491667 542.51237406 398.05459508 542.49102491 402.67464548 C542.48653894 404.35022117 542.48886953 406.02583111 542.49852806 407.70138496 C542.51061433 409.97138934 542.49829836 412.23997393 542.47964478 414.50990295 C542.47899537 415.7729628 542.47834596 417.03602265 542.47767687 418.33735704 C541.97628021 421.50336456 541.97628021 421.50336456 540.50880241 423.90899563 C536.71907301 426.29484908 533.34871537 426.05427192 528.95256042 426.00672913 C528.02560303 426.01254289 527.09864563 426.01835665 526.14359862 426.02434659 C523.01412063 426.03903168 519.88541654 426.02502152 516.7559433 426.01129913 C514.49907195 426.01590467 512.24220359 426.02225524 509.98534155 426.03020811 C503.76535953 426.04697212 497.54562166 426.03862294 491.32563853 426.02626324 C485.31239787 426.01816944 479.29920924 426.02878821 473.28597881 426.0388527 C460.2240988 426.05994008 447.16229694 426.05808042 434.10040946 426.04653705 C422.66992045 426.0364847 411.23946012 426.0338434 399.80896759 426.03862762 C398.67275324 426.03908594 398.67275324 426.03908594 397.51358507 426.0395535 C394.4389351 426.04079881 391.36428514 426.0420724 388.2896352 426.04339256 C359.43234914 426.05563544 330.57511293 426.04452383 301.71783455 426.02300497 C276.06583791 426.00402178 250.41392069 426.00572026 224.76192474 426.02484894 C195.95826387 426.04625589 167.15464705 426.05476726 138.35097933 426.04239988 C135.28185051 426.04111697 132.21272167 426.03986561 129.14359283 426.03862762 C128.01000141 426.03815316 128.01000141 426.03815316 126.85350914 426.03766911 C115.42869709 426.03311443 104.00391684 426.03844923 92.57910919 426.04854584 C79.59182455 426.05996588 66.60463045 426.05715998 53.61735713 426.03542286 C46.98607223 426.0246908 40.35491322 426.02084246 33.72361946 426.03401947 C27.66023716 426.04588612 21.59716704 426.03947569 15.5338133 426.01810926 C13.33334104 426.01361882 11.13284274 426.01596366 8.93238705 426.02561241 C5.95454305 426.03767433 2.97778601 426.02540543 0 426.00672913 C-1.29888827 426.02077612 -1.29888827 426.02077612 -2.6240167 426.0351069 C-6.28444072 425.98882692 -8.41326123 425.88768347 -11.55624199 423.90899563 C-13.55221184 420.63700944 -13.52511584 418.33852681 -13.52708435 414.50990295 C-13.53289811 413.80243414 -13.53871188 413.09496532 -13.54470181 412.36605805 C-13.55935996 409.98313971 -13.54539038 407.60124209 -13.53165436 405.21833038 C-13.536261 403.4976818 -13.54261231 401.77703715 -13.55056334 400.05640078 C-13.56731243 395.31859786 -13.55898504 390.58111585 -13.54661846 385.84331155 C-13.53759305 380.73757736 -13.5515252 375.63189955 -13.56253815 370.52617645 C-13.58035483 360.52028886 -13.57646938 350.51452107 -13.56488758 340.50862873 C-13.55586591 332.37898007 -13.55462377 324.24936506 -13.55898285 316.11971283 C-13.55959578 314.96408404 -13.56020871 313.80845526 -13.56084022 312.61780742 C-13.56211908 310.27040747 -13.56341593 307.92300753 -13.56473058 305.5756076 C-13.57614561 283.54727817 -13.56300821 261.51901525 -13.54152912 239.49069673 C-13.52365732 220.57610347 -13.52676116 201.66160839 -13.54520416 182.74701691 C-13.56659459 160.79925465 -13.57504689 138.85155073 -13.56275511 116.90377951 C-13.56148087 114.56485845 -13.56022339 112.22593738 -13.55898285 109.8870163 C-13.55836575 108.73612511 -13.55774864 107.58523393 -13.55711284 106.39946726 C-13.55365445 98.27653849 -13.5594988 90.15364663 -13.56890106 82.03072357 C-13.58010213 72.13593997 -13.57712091 62.24128334 -13.55577809 52.34651434 C-13.54524215 47.29490519 -13.54118902 42.24350799 -13.55437469 37.19190025 C-13.56625192 32.57181246 -13.55981363 27.95213404 -13.53846449 23.33208364 C-13.53397852 21.65650795 -13.5363091 19.98089802 -13.54596764 18.30534416 C-13.55805391 16.03533978 -13.54573794 13.7667552 -13.52708435 11.49682617 C-13.52643494 10.23376632 -13.52578553 8.97070647 -13.52511644 7.66937208 C-13.02371979 4.50336456 -13.02371979 4.50336456 -11.55624199 2.0977335 C-7.76651258 -0.28811995 -4.39615495 -0.04754279 0 0 Z M0.97628021 68.50336456 C0.97628021 181.69336456 0.97628021 294.88336456 0.97628021 411.50336456 C174.88628021 411.50336456 348.79628021 411.50336456 527.97628021 411.50336456 C527.97628021 298.31336456 527.97628021 185.12336456 527.97628021 68.50336456 C354.06628021 68.50336456 180.15628021 68.50336456 0.97628021 68.50336456 Z " fill="#303945" transform="translate(66.02371978759766,32.49663543701172)"/>
<path d="M0 0 C13.73279087 10.83345323 22.3873835 24.01428817 24.6875 41.59375 C27.49184348 72.1610939 18.3766942 103.49774107 0 128 C1.13050781 128.09539062 2.26101563 128.19078125 3.42578125 128.2890625 C8.33921816 128.91227218 12.62518688 130.50005179 17.1875 132.375 C18.47865723 132.9023877 18.47865723 132.9023877 19.79589844 133.44042969 C36.26965709 140.33378909 51.17718426 148.67567924 65 160 C65.8185144 160.66273926 65.8185144 160.66273926 66.65356445 161.33886719 C77.87178377 170.52134787 86.91647219 183.45015564 92 197 C92.391875 197.98613281 92.78375 198.97226562 93.1875 199.98828125 C97.98931885 213.91022132 98.85450854 234.47564148 93.0703125 248.20703125 C87.59988268 258.07266848 78.69042337 263.47135605 68.14819336 266.53881836 C65.81834065 267.03899926 63.74848651 267.0939566 61.3671875 267.0703125 C48.38186157 266.92952359 48.38186157 266.92952359 37.37109375 273.09375 C32.59643438 276.93235589 26.66796477 278.81314745 21 281 C20.09121094 281.36996094 19.18242187 281.73992187 18.24609375 282.12109375 C15.19369194 283.2629675 12.14929767 284.15786736 9 285 C8.32179199 285.18336914 7.64358398 285.36673828 6.94482422 285.55566406 C-20.86868905 292.65468645 -55.55744821 292.35112798 -83 284 C-83.77601563 283.76474609 -84.55203125 283.52949219 -85.3515625 283.28710938 C-95.09030841 280.20769756 -106.00792559 276.02932651 -113.87963867 269.42236328 C-116.35623732 267.76103182 -117.64665939 267.63161884 -120.59765625 267.62890625 C-121.47655518 267.61448486 -122.3554541 267.60006348 -123.26098633 267.58520508 C-124.18548584 267.5777124 -125.10998535 267.57021973 -126.0625 267.5625 C-138.87317305 267.19036954 -148.60256259 264.59514175 -157.75390625 255.19921875 C-167.6901927 244.01790364 -166.75542747 228.9122547 -166.18652344 214.72021484 C-165.06811911 198.40966385 -156.63898466 183.05596733 -146 171 C-145.236875 169.989375 -144.47375 168.97875 -143.6875 167.9375 C-126.6985598 149.36819327 -103.86572726 139.13688759 -81 130 C-79.53530273 129.4131543 -79.53530273 129.4131543 -78.04101562 128.81445312 C-75.69457275 127.87488522 -73.34758546 126.93670856 -71 126 C-71.56847656 125.2471875 -72.13695312 124.494375 -72.72265625 123.71875 C-87.66510651 103.16352627 -94.60026786 78.55509 -94.375 53.25 C-94.38660156 51.93128906 -94.39820313 50.61257812 -94.41015625 49.25390625 C-94.35959147 32.31470508 -89.19114581 17.96445249 -77.125 5.83203125 C-69.14954021 -1.68193295 -59.53359724 -7.03024751 -49 -10 C-48.25492187 -10.22300781 -47.50984375 -10.44601563 -46.7421875 -10.67578125 C-30.54850936 -14.94185775 -13.51443388 -9.34530152 0 0 Z " fill="#2D3642" transform="translate(264,122)"/>
<path d="M0 0 C173.91 0 347.82 0 527 0 C527 13.2 527 26.4 527 40 C353.09 40 179.18 40 0 40 C0 26.8 0 13.6 0 0 Z " fill="#FEFEFE" transform="translate(67,47)"/>
<path d="M0 0 C-0.16113281 0.99644531 -0.32226562 1.99289062 -0.48828125 3.01953125 C-3.14113807 21.71160736 0.41751353 40.22944217 11 56 C13.82883747 57.41441874 15.87376745 57.31900332 19 57 C21.26175985 54.82523092 22.36735323 52.32651908 23.875 49.5625 C25.81043158 46.12984777 28.0644019 43.66251921 31 41 C31.928125 40.071875 32.85625 39.14375 33.8125 38.1875 C40.39766905 32.62990678 51.72890939 25.75744503 60.53515625 25.50390625 C73.48984025 28.11126737 87.9369361 36.50726618 96 47 C97.22047075 49.3567711 98.24512825 51.69513876 99.17578125 54.1796875 C99.85584437 56.19055939 99.85584437 56.19055939 102 57 C104.8275989 57.75244501 104.8275989 57.75244501 108 57 C116.88924068 48.98400967 121.46099582 34.24034771 122.13623047 22.66455078 C122.37500311 15.05793672 122.49087553 7.4904472 121 0 C126.13117831 1.45582268 130.22826199 3.73075244 134.6875 6.5625 C135.39011963 7.00650146 136.09273926 7.45050293 136.81665039 7.90795898 C142.9316505 11.83858127 148.58328162 16.1448234 154 21 C154.77730469 21.68320312 155.55460938 22.36640625 156.35546875 23.0703125 C167.12636901 33.11820913 176.28425771 47.50398172 177.14526367 62.53613281 C177.16999277 65.44087116 177.18565448 68.34514868 177.1875 71.25 C177.19974609 72.24902344 177.21199219 73.24804688 177.22460938 74.27734375 C177.25324069 88.87931454 177.25324069 88.87931454 173.3359375 94.3046875 C163.98447311 101.79331038 156.96022038 102.45354768 145 102 C144.87882813 100.90300781 144.75765625 99.80601562 144.6328125 98.67578125 C144.46390637 97.22131177 144.29461519 95.76688696 144.125 94.3125 C144.04636719 93.59126953 143.96773437 92.87003906 143.88671875 92.12695312 C143.41423572 88.14719222 142.86432363 84.61126391 141 81 C138.23749964 79.61874982 136.05268901 79.80920694 133 80 C130.72239046 81.84820673 130.72239046 81.84820673 130.76953125 84.6875 C130.85805613 91.51196359 131.14368307 98.22592143 132 105 C116.70133019 115.99237757 100.1998891 119.65770153 82 123 C81.06285156 123.17869629 80.12570313 123.35739258 79.16015625 123.54150391 C72.91032644 124.44827 66.55591496 124.2441097 60.25 124.25 C59.50768127 124.25100708 58.76536255 124.25201416 58.00054932 124.25305176 C46.72746945 124.24269075 35.98930918 123.63970004 25 121 C24.35514648 120.85546387 23.71029297 120.71092773 23.04589844 120.56201172 C13.65606079 118.44964914 4.522884 115.51742968 -4 111 C-4.72421143 110.63068359 -5.44842285 110.26136719 -6.19458008 109.88085938 C-8.60056203 108.43141547 -10.26108407 107.2140672 -12 105 C-12.7561081 100.99716298 -12.30938682 97.27003912 -11.8125 93.25 C-11.59769999 91.17317623 -11.39521866 89.09502912 -11.20703125 87.015625 C-11.0985083 86.10071289 -10.98998535 85.18580078 -10.87817383 84.24316406 C-10.91837646 83.50291992 -10.9585791 82.76267578 -11 82 C-14.8503105 79.43312633 -16.58569763 80.16711276 -21 81 C-22.6978257 85.57984917 -23.55412487 90.04595795 -24.125 94.875 C-24.21136719 95.56335938 -24.29773438 96.25171875 -24.38671875 96.9609375 C-24.59659566 98.63995275 -24.79907087 100.31989048 -25 102 C-36.60791601 102.48441071 -44.38193163 101.73654286 -53.37109375 94.109375 C-58.16454192 87.90203205 -57.36647441 79.76812712 -57.375 72.3125 C-57.39949219 71.20455078 -57.42398438 70.09660156 -57.44921875 68.95507812 C-57.51570596 49.99514311 -48.04839236 35.31850757 -35.375 22 C-27.38904648 14.20972069 -11.71762545 0 0 0 Z " fill="#FDFDFD" transform="translate(169,274)"/>
<path d="M0 0 C3.46865314 1.49443106 5.73517344 3.50925726 8.4375 6.125 C22.77035339 19.20058555 40.54715292 26.0988154 59 31 C58.56158876 49.81182774 50.20862967 69.66166202 37 83 C30.06720457 88.95019451 21.69349998 93.9064004 12.2265625 93.47265625 C0.20647768 90.92102421 -9.13127219 82.38857388 -15.6875 72.4375 C-24.07616617 58.99620093 -30.8576744 41.16386378 -30 25 C-28.37191406 24.22076172 -28.37191406 24.22076172 -26.7109375 23.42578125 C-25.26541192 22.72179152 -23.8201113 22.01733975 -22.375 21.3125 C-21.66214844 20.97283203 -20.94929687 20.63316406 -20.21484375 20.28320312 C-13.74529133 17.1077806 -8.65223382 13.61428594 -4.75 7.375 C-4.27046875 6.61960938 -3.7909375 5.86421875 -3.296875 5.0859375 C-2.86890625 4.39757812 -2.4409375 3.70921875 -2 3 C-1.34 2.01 -0.68 1.02 0 0 Z " fill="#FDFDFD" transform="translate(214,160)"/>
<path d="M0 0 C8.07614481 6.39058305 12.69327547 13.48743169 15.9375 23.1875 C16.35 24.280625 16.7625 25.37375 17.1875 26.5 C18.3159292 32.04811026 18.09019941 37.54610509 17.9375 43.1875 C-1.04869447 42.52131774 -18.87403922 30.04742261 -32.0625 17.1875 C-34.70624409 14.287793 -37.21287772 11.2837543 -39.6484375 8.20703125 C-42.01297821 5.85357334 -42.01297821 5.85357334 -45.7265625 5.76171875 C-49.13377773 5.85085004 -49.13377773 5.85085004 -51.0625 8.1875 C-51.74174772 10.25378297 -52.35832057 12.3409662 -52.9375 14.4375 C-55.75319257 23.76512156 -60.31175501 29.351015 -68.0625 35.1875 C-71.625 36.6875 -71.625 36.6875 -74.0625 37.1875 C-75.0506732 26.5646381 -70.43385451 15.52037264 -64.0625 7.1875 C-46.75279481 -12.44206258 -20.97828058 -14.39912243 0 0 Z " fill="#FAFAFA" transform="translate(257.0625,133.8125)"/>
<path d="M0 0 C1.31929504 -0.01272446 2.63859009 -0.02544891 3.99786377 -0.03855896 C5.45829952 -0.03237661 6.91873353 -0.02577058 8.37916565 -0.01878357 C9.91842985 -0.02584148 11.4576871 -0.03458596 12.99693298 -0.04489136 C17.17676414 -0.06741035 21.35621709 -0.0644398 25.53608584 -0.05556989 C29.02524232 -0.05046276 32.51432754 -0.05775035 36.00347668 -0.06504196 C44.2347266 -0.0820491 52.46579118 -0.07846717 60.69703674 -0.06175232 C69.18936737 -0.0448303 77.68118403 -0.06066458 86.17345852 -0.0929752 C93.46446616 -0.11966462 100.75531373 -0.12694887 108.04636532 -0.11846012 C112.40107666 -0.11352894 116.75547872 -0.11575659 121.11015129 -0.13624763 C125.20533032 -0.15459474 129.2997697 -0.14865868 133.39490891 -0.12404823 C134.8973243 -0.11903712 136.39979595 -0.12253803 137.90216637 -0.13519669 C139.95483399 -0.15112297 142.00506453 -0.13618698 144.05761719 -0.11352539 C145.20558494 -0.11293908 146.35355268 -0.11235277 147.53630733 -0.1117487 C151.5421399 0.70936022 153.05121254 2.38314428 155.59230042 5.5146637 C156.15480042 8.0771637 156.15480042 8.0771637 155.59230042 10.5146637 C153.39647987 13.37354833 152.22247322 14.40834444 148.62532711 15.01523495 C147.46039006 15.01544423 146.29545301 15.01565351 145.09521484 15.01586914 C144.1193361 15.02417074 144.1193361 15.02417074 143.12374264 15.03264004 C140.94547328 15.04624494 138.76835012 15.03127992 136.59010315 15.01637268 C135.0278932 15.02015592 133.4656866 15.025656 131.90348816 15.03274536 C127.66178088 15.04671566 123.4204785 15.03551984 119.17879367 15.01903415 C114.74257503 15.00519372 110.30638014 15.01164248 105.87014771 15.01516724 C98.42110154 15.01786988 90.97221646 15.00438819 83.52320862 14.98121643 C74.90597932 14.95459656 66.28901922 14.95286246 57.67176288 14.96460479 C49.3871792 14.97537573 41.10269307 14.96920154 32.81811714 14.95504951 C29.28984845 14.94928473 25.76165103 14.94937622 22.23338127 14.95411491 C18.0808967 14.95887967 13.92870776 14.9488041 9.77627945 14.92716026 C8.25045456 14.92158569 6.72460129 14.92113323 5.19877434 14.92611313 C3.11965328 14.93204894 1.04144135 14.91959536 -1.03759766 14.90234375 C-2.20215768 14.89991385 -3.3667177 14.89748396 -4.56656742 14.89498043 C-7.40769958 14.5146637 -7.40769958 14.5146637 -9.27848721 13.20527744 C-11.21325443 10.30861768 -10.82034945 7.87481257 -10.40769958 4.5146637 C-7.34313756 0.3883828 -5.01484181 0.01226593 0 0 Z " fill="#303945" transform="translate(400.40769958496094,298.48533630371094)"/>
<path d="M0 0 C0.64423672 -0.00538554 1.28847344 -0.01077108 1.95223248 -0.01631981 C4.1149242 -0.03064827 6.27700803 -0.02348404 8.43972778 -0.01637268 C9.98869317 -0.0220738 11.53765436 -0.02903705 13.08660889 -0.03717041 C17.2974368 -0.05514751 21.50805685 -0.05392472 25.71891165 -0.04822803 C29.23286036 -0.04514214 32.7467688 -0.05122205 36.26071179 -0.05726677 C44.55088647 -0.07132588 52.84095813 -0.06973975 61.13113403 -0.05836487 C69.68528815 -0.04688717 78.23912861 -0.06095022 86.79324138 -0.08776134 C94.13516763 -0.10991204 101.47699539 -0.11655701 108.81895268 -0.11068493 C113.20493839 -0.10731203 117.59072312 -0.10975219 121.97668076 -0.12693596 C126.10211644 -0.14239263 130.22708749 -0.13846406 134.35250473 -0.11963081 C135.86621003 -0.11594108 137.37994964 -0.11906465 138.89362335 -0.1295166 C140.9613571 -0.14270354 143.02754745 -0.13120234 145.09521484 -0.11352539 C146.83017621 -0.11321146 146.83017621 -0.11321146 148.6001873 -0.1128912 C152.36246839 0.49967953 154.05735195 1.64708177 156.67459106 4.38768005 C156.73709106 7.95018005 156.73709106 7.95018005 155.67459106 11.38768005 C153.37619106 13.72073093 152.01065386 14.34410259 148.74164581 14.76799679 C147.59275627 14.77042668 146.44386673 14.77285658 145.26016235 14.77536011 C144.6184492 14.78074565 143.97673604 14.78613118 143.31557703 14.79167992 C141.16747461 14.80597608 139.01998698 14.79885217 136.87185669 14.79173279 C135.33097335 14.79743547 133.79009424 14.80439934 132.2492218 14.81253052 C128.0653784 14.83048715 123.88174444 14.82928903 119.69787407 14.82358813 C116.2061488 14.82050028 112.71446399 14.82658413 109.22274446 14.83262688 C100.98676984 14.84667834 92.75089894 14.8451053 84.5149231 14.83372498 C76.01469112 14.82223916 67.51477449 14.8363257 59.01458406 14.86312145 C51.71851263 14.88526128 44.42254031 14.89191984 37.12643766 14.88604504 C32.76788501 14.8826706 28.40953458 14.88512283 24.05101013 14.90229607 C19.95346943 14.91773621 15.8563969 14.91384268 11.75887489 14.89499092 C10.25442407 14.89129705 8.74993877 14.89443676 7.24551964 14.90487671 C5.19280983 14.91803498 3.14166186 14.90658832 1.08901978 14.8888855 C-0.05986977 14.88867621 -1.20875931 14.88846693 -2.39246368 14.8882513 C-5.98603738 14.27492936 -7.17259662 13.28819806 -9.32540894 10.38768005 C-10.05182697 4.4725618 -10.05182697 4.4725618 -8.19340324 1.69706631 C-5.45706631 -0.22099198 -3.32213739 0.00698377 0 0 Z " fill="#303946" transform="translate(399.3254089355469,249.61231994628906)"/>
<path d="M0 0 C0.64902584 -0.00538554 1.29805167 -0.01077108 1.96674496 -0.01631981 C4.14558874 -0.03064877 6.32382919 -0.02348394 8.50270081 -0.01637268 C10.06314077 -0.02207371 11.62357656 -0.02903694 13.18400574 -0.03717041 C17.42575682 -0.05514694 21.66730154 -0.05392501 25.90907931 -0.04822803 C29.44797547 -0.04514253 32.98683162 -0.05122151 36.52572209 -0.05726677 C44.87338801 -0.07132525 53.22095163 -0.06973984 61.56861877 -0.05836487 C70.18527596 -0.04688293 78.80162193 -0.06095749 87.4182381 -0.08776134 C94.81195281 -0.10990138 102.20556971 -0.11655954 109.59931523 -0.11068493 C114.01712656 -0.10730999 118.43473838 -0.10976584 122.8525219 -0.12693596 C127.00668067 -0.14237605 131.16037765 -0.13848259 135.31451797 -0.11963081 C136.83993121 -0.11593669 138.36537843 -0.11907737 139.89076042 -0.1295166 C141.97198034 -0.14267332 144.05165943 -0.13122932 146.1328125 -0.11352539 C147.88021807 -0.11321146 147.88021807 -0.11321146 149.66292477 -0.1128912 C153.26050767 0.494073 154.43904045 1.52313506 156.62989807 4.38768005 C157.12989807 6.88768005 157.12989807 6.88768005 156.62989807 9.38768005 C154.43904045 12.25222505 153.26050767 13.28128711 149.66292477 13.8882513 C148.49798772 13.88846059 147.33305067 13.88866987 146.1328125 13.8888855 C145.15693376 13.89718709 145.15693376 13.89718709 144.1613403 13.9056564 C141.98307094 13.9192613 139.80594778 13.90429628 137.62770081 13.88938904 C136.06549086 13.89317227 134.50328426 13.89867236 132.94108582 13.90576172 C128.69937853 13.91973202 124.45807615 13.9085362 120.21639132 13.8920505 C115.78017269 13.87821008 111.34397779 13.88465884 106.90774536 13.88818359 C99.45869919 13.89088624 92.00981412 13.87740454 84.56080627 13.85423279 C75.94357698 13.82761292 67.32661687 13.82587882 58.70936054 13.83762115 C50.42477685 13.84839208 42.14029073 13.8422179 33.8557148 13.82806587 C30.3274461 13.82230109 26.79924869 13.82239258 23.27097893 13.82713127 C19.11849436 13.83189603 14.96630542 13.82182046 10.81387711 13.80017662 C9.28805221 13.79460205 7.76219894 13.79414959 6.23637199 13.79912949 C4.15725094 13.8050653 2.07903901 13.79261172 0 13.77536011 C-1.16456002 13.77293021 -2.32912004 13.77050032 -3.52896976 13.76799679 C-6.37010193 13.38768005 -6.37010193 13.38768005 -8.2447958 12.08220005 C-10.14282974 9.22408314 -9.72481881 6.6983709 -9.37010193 3.38768005 C-6.92534919 -0.29370254 -4.18169344 0.00872525 0 0 Z " fill="#293340" transform="translate(399.37010192871094,200.61231994628906)"/>
<path d="M0 0 C0.8383136 -0.00990463 1.6766272 -0.01980927 2.54034424 -0.03001404 C3.45677704 -0.02551239 4.37320984 -0.02101074 5.31741333 -0.01637268 C6.76905884 -0.02666756 6.76905884 -0.02666756 8.25003052 -0.03717041 C11.45639628 -0.05550537 14.6622758 -0.05159088 17.86868286 -0.0459137 C20.09444336 -0.05047272 22.32020245 -0.05577746 24.54595947 -0.0617981 C29.21495271 -0.07074271 33.88377504 -0.06829119 38.55276489 -0.05836487 C44.53744337 -0.04688167 50.52153126 -0.06707031 56.50613213 -0.09628201 C61.1043676 -0.11462642 65.70246115 -0.11435488 70.30072403 -0.10864449 C72.50714063 -0.10849101 74.7135667 -0.11455671 76.91994858 -0.12693596 C80.00593857 -0.14180814 83.0908327 -0.13119553 86.17678833 -0.11402893 C87.08917267 -0.1236969 88.00155701 -0.13336487 88.94158936 -0.14332581 C93.06867774 -0.09523505 95.34761851 0.0793372 98.9788208 2.19638062 C100.87649536 4.38768005 100.87649536 4.38768005 100.93899536 7.95018005 C99.87649536 11.38768005 99.87649536 11.38768005 98.40249634 13.07727051 C94.4955491 15.10407137 90.73755872 14.81331733 86.39797974 14.79173279 C85.43821732 14.79859604 84.4784549 14.80545929 83.48960876 14.81253052 C80.31633726 14.83083569 77.14355834 14.826956 73.97024536 14.8212738 C71.76593871 14.82583348 69.56163347 14.83113841 67.35733032 14.8371582 C62.73719508 14.84609638 58.11723263 14.84365767 53.49710083 14.83372498 C47.57176391 14.82222855 41.64702231 14.84245392 35.72176361 14.87164211 C31.16989341 14.88997241 26.61816675 14.88971806 22.06626892 14.88400459 C19.88135441 14.88385102 17.69643039 14.88992477 15.5115509 14.90229607 C12.45898881 14.91714585 9.4075379 14.90657324 6.35501099 14.88938904 C5.44995316 14.89905701 4.54489532 14.90872498 3.6124115 14.91868591 C-2.47235165 14.84682689 -2.47235165 14.84682689 -5.68856812 12.57897949 C-7.77598611 9.39127203 -7.59704 7.10831504 -7.12350464 3.38768005 C-4.99066275 0.54761891 -3.49423531 0.01166015 0 0 Z " fill="#303945" transform="translate(397.1235046386719,150.61231994628906)"/>
<path d="M0 0 C0.8383136 -0.00990463 1.6766272 -0.01980927 2.54034424 -0.03001404 C3.45677704 -0.02551239 4.37320984 -0.02101074 5.31741333 -0.01637268 C6.76905884 -0.02666756 6.76905884 -0.02666756 8.25003052 -0.03717041 C11.45639628 -0.05550537 14.6622758 -0.05159088 17.86868286 -0.0459137 C20.09444336 -0.05047272 22.32020245 -0.05577746 24.54595947 -0.0617981 C29.21495271 -0.07074271 33.88377504 -0.06829119 38.55276489 -0.05836487 C44.53744337 -0.04688167 50.52153126 -0.06707031 56.50613213 -0.09628201 C61.1043676 -0.11462642 65.70246115 -0.11435488 70.30072403 -0.10864449 C72.50714063 -0.10849101 74.7135667 -0.11455671 76.91994858 -0.12693596 C80.00593857 -0.14180814 83.0908327 -0.13119553 86.17678833 -0.11402893 C87.08917267 -0.1236969 88.00155701 -0.13336487 88.94158936 -0.14332581 C93.06716932 -0.09525262 95.35001172 0.08178057 98.98272705 2.19247437 C100.87649536 4.38768005 100.87649536 4.38768005 100.87649536 8.01268005 C99.87649536 11.38768005 99.87649536 11.38768005 96.87649536 13.38768005 C94.93837738 13.64215565 94.93837738 13.64215565 92.7015686 13.64837646 C91.85195053 13.65546127 91.00233246 13.66254608 90.12696838 13.66984558 C89.19804276 13.66736816 88.26911713 13.66489075 87.31204224 13.66233826 C86.33131241 13.66744919 85.35058258 13.67256012 84.34013367 13.67782593 C81.09177585 13.69174921 77.84362951 13.69076326 74.59524536 13.6884613 C72.34227418 13.69234638 70.08930372 13.69668066 67.83633423 13.70144653 C63.11190416 13.70891439 58.38754881 13.7086131 53.66311646 13.70335388 C47.59987489 13.69755485 41.53693836 13.71449817 35.47374725 13.73769855 C30.82071129 13.75240739 26.1677493 13.75331155 21.51469421 13.75018883 C19.27871597 13.75070335 17.04273373 13.75596558 14.80677795 13.76600075 C11.68463113 13.77829417 8.5630852 13.77161634 5.44094849 13.75999451 C4.04756004 13.77146011 4.04756004 13.77146011 2.62602234 13.78315735 C1.77640427 13.77614304 0.92678619 13.76912872 0.05142212 13.76190186 C-0.68672478 13.7620696 -1.42487167 13.76223734 -2.18538666 13.76241016 C-4.71538525 13.27324146 -5.59644734 12.43829726 -7.12350464 10.38768005 C-7.77941964 4.26580669 -7.77941964 4.26580669 -5.85778618 1.69316006 C-3.7308017 0.09207301 -2.64225444 0.00881711 0 0 Z " fill="#29323F" transform="translate(397.1235046386719,348.61231994628906)"/>
<path d="M0 0 C10.42894654 2.61170874 19.42761736 1.24894566 29.1484375 -2.94921875 C33.04792824 -4.38615438 35.06927379 -4.17085461 39 -3 C39.804375 -2.814375 40.60875 -2.62875 41.4375 -2.4375 C41.953125 -2.293125 42.46875 -2.14875 43 -2 C40.43185434 7.13118457 31.84150059 13.46081589 24 18 C17.52044836 20.98080516 11.49518068 22.23804236 4.5703125 19.78515625 C-4.7838535 15.10807325 -13.17452361 9.71382543 -18 0 C-17.67 -0.99 -17.34 -1.98 -17 -3 C-10.35555143 -4.75882462 -5.94730493 -3.03692167 0 0 Z " fill="#F9F9F9" transform="translate(217,264)"/>
<path d="M0 0 C0.66 0 1.32 0 2 0 C8.03022819 11.9796944 7.78385621 26.66869797 3.65625 39.26171875 C3.4396875 39.83535156 3.223125 40.40898437 3 41 C-0.32307711 39.51296093 -2.84403267 37.58709958 -5.625 35.25 C-9.90801152 31.7381855 -14.28968041 28.94138698 -19.1640625 26.32421875 C-19.76992187 25.88722656 -20.37578125 25.45023437 -21 25 C-21 24.01 -21 23.02 -21 22 C-18.69140625 20.1953125 -18.69140625 20.1953125 -15.5625 18.125 C-9.96419 14.24380471 -6.36389164 9.91862899 -2.76782227 4.16650391 C-1.88340795 2.75304099 -0.94631374 1.37279146 0 0 Z " fill="#F8F8F9" transform="translate(272,269)"/>
<path d="M0 0 C0.66 0 1.32 0 2 0 C3.39730289 1.97549719 4.70489197 3.95924064 6 6 C9.62691657 11.5055425 13.45838915 15.50467021 18.8359375 19.4140625 C20.75852611 20.82303538 22.37201893 22.26698789 24 24 C23.33355469 24.40089844 22.66710937 24.80179687 21.98046875 25.21484375 C15.6648087 29.11023687 9.94545376 33.34910215 4.3125 38.1796875 C2 40 2 40 -1 41 C-5.80362244 29.87732662 -5.88348261 15.06619132 -1.75390625 3.71484375 C-1.20279605 2.4612822 -0.61239514 1.22479028 0 0 Z " fill="#F9F9FA" transform="translate(185,269)"/>
<path d="M0 0 C0.7355908 0.00184359 1.4711816 0.00368717 2.22906303 0.00558662 C3.07322777 0.0028373 3.9173925 0.00008797 4.78713799 -0.00274467 C5.71502129 0.00444588 6.64290459 0.01163643 7.59890556 0.01904488 C8.57455467 0.01875282 9.55020378 0.01846077 10.55541801 0.01815987 C13.79119469 0.01955698 17.02674317 0.03513615 20.26247978 0.05078316 C22.50164476 0.05451193 24.74081137 0.05735954 26.97997856 0.0593586 C32.88193048 0.06700574 38.78378443 0.0866635 44.68569756 0.10876656 C50.70476773 0.12920173 56.72385369 0.13835533 62.74294853 0.14843941 C74.5593979 0.16990837 86.37577445 0.20405733 98.19216728 0.24609566 C98.19216728 0.57609566 98.19216728 0.90609566 98.19216728 1.24609566 C65.52216728 1.24609566 32.85216728 1.24609566 -0.80783272 1.24609566 C-1.46783272 2.56609566 -2.12783272 3.88609566 -2.80783272 5.24609566 C-3.46783272 5.90609566 -4.12783272 6.56609566 -4.80783272 7.24609566 C-3.74418923 0.50968693 -3.74418923 0.50968693 0 0 Z " fill="#313B47" transform="translate(394.8078327178955,348.75390434265137)"/>
</svg>
